<svg width="1220" height="720" xmlns="http://www.w3.org/2000/svg" xmlns:xlink="http://www.w3.org/1999/xlink" xml:space="preserve" overflow="hidden"><g transform="translate(-30 0)"><path d="M168.9 538.7 1183.6 538.7M168.9 487 1183.6 487M168.9 435.8 1183.6 435.8M168.9 384.1 1183.6 384.1M168.9 332.8 1183.6 332.8M168.9 281.6 1183.6 281.6M168.9 229.9 1183.6 229.9M168.9 178.7 1183.6 178.7M168.9 127 1183.6 127M168.9 75.7 1183.6 75.7" stroke="#D9D9D9" stroke-width="1.4819" stroke-linejoin="round" fill="none"/><path d="M168.9 590 1183.6 590" stroke="#D9D9D9" stroke-width="1.4819" stroke-linejoin="round" fill="none"/><path d="M194.1 137.5 245 168.5 295.8 255.5 346.2 302 397 377.8 447.8 421.7 498.6 441.1 549 436.8 599.8 451.4 650.6 457.4 701.4 464.7 752.2 469.4 802.6 472.4 853.4 473.7 904.2 471.1 955 468.5 1005.4 467.2 1056.2 467.2 1107 466.8 1157.7 467.2" stroke="#70AD47" stroke-width="4.4413" stroke-linecap="round" stroke-linejoin="round" fill="none"/><path d="M199.3 137.3C199.3 139.9 197.2 142 194.6 142 192 142 189.9 139.9 189.9 137.3 189.9 134.7 192 132.6 194.6 132.6 197.2 132.6 199.3 134.7 199.3 137.3Z" stroke="#70AD47" stroke-width="1.4819" stroke-linejoin="round" fill="#70AD47"/><path d="M249.7 168.3C249.7 170.9 247.6 173 245 173 242.4 173 240.3 170.9 240.3 168.3 240.3 165.7 242.4 163.6 245 163.6 247.6 163.6 249.7 165.7 249.7 168.3Z" stroke="#70AD47" stroke-width="1.4819" stroke-linejoin="round" fill="#70AD47"/><path d="M300.5 255.8C300.5 258.4 298.4 260.5 295.8 260.5 293.2 260.5 291.1 258.4 291.1 255.8 291.1 253.2 293.2 251.1 295.8 251.1 298.4 251 300.5 253.2 300.5 255.8Z" stroke="#70AD47" stroke-width="1.4819" stroke-linejoin="round" fill="#70AD47"/><path d="M351.4 301.9C351.4 304.5 349.3 306.6 346.7 306.6 344.1 306.6 342 304.5 342 301.9 342 299.3 344.1 297.2 346.7 297.2 349.3 297.1 351.4 299.2 351.4 301.9Z" stroke="#70AD47" stroke-width="1.4819" stroke-linejoin="round" fill="#70AD47"/><path d="M402.2 378.1C402.2 380.7 400.1 382.8 397.5 382.8 394.9 382.8 392.8 380.7 392.8 378.1 392.8 375.5 394.9 373.4 397.5 373.4 400.1 373.4 402.2 375.5 402.2 378.1Z" stroke="#70AD47" stroke-width="1.4819" stroke-linejoin="round" fill="#70AD47"/><path d="M453.1 421.6C453.1 424.2 451 426.3 448.4 426.3 445.8 426.3 443.7 424.2 443.7 421.6 443.7 419 445.8 416.9 448.4 416.9 450.9 416.9 453.1 419 453.1 421.6Z" stroke="#70AD47" stroke-width="1.4819" stroke-linejoin="round" fill="#70AD47"/><path d="M503.5 441.4C503.5 444 501.4 446.1 498.8 446.1 496.2 446.1 494.1 444 494.1 441.4 494.1 438.8 496.2 436.7 498.8 436.7 501.4 436.7 503.5 438.8 503.5 441.4Z" stroke="#70AD47" stroke-width="1.4819" stroke-linejoin="round" fill="#70AD47"/><path d="M554.3 437.1C554.3 439.7 552.2 441.8 549.6 441.8 547 441.8 544.9 439.7 544.9 437.1 544.9 434.5 547 432.4 549.6 432.4 552.2 432.4 554.3 434.5 554.3 437.1Z" stroke="#70AD47" stroke-width="1.4819" stroke-linejoin="round" fill="#70AD47"/><path d="M605.2 451.3C605.2 453.9 603.1 456 600.5 456 597.9 456 595.8 453.9 595.8 451.3 595.8 448.7 597.9 446.6 600.5 446.6 603 446.6 605.2 448.7 605.2 451.3Z" stroke="#70AD47" stroke-width="1.4819" stroke-linejoin="round" fill="#70AD47"/><path d="M656 457.8C656 460.4 653.9 462.5 651.3 462.5 648.7 462.5 646.6 460.4 646.6 457.8 646.6 455.2 648.7 453.1 651.3 453.1 653.9 453 656 455.2 656 457.8Z" stroke="#70AD47" stroke-width="1.4819" stroke-linejoin="round" fill="#70AD47"/><path d="M706.8 464.7C706.8 467.3 704.7 469.4 702.1 469.4 699.5 469.4 697.4 467.3 697.4 464.7 697.4 462.1 699.5 460 702.1 460 704.7 459.9 706.8 462 706.8 464.7Z" stroke="#70AD47" stroke-width="1.4819" stroke-linejoin="round" fill="#70AD47"/><path d="M757.3 469.4C757.3 472 755.2 474.1 752.6 474.1 750 474.1 747.9 472 747.9 469.4 747.9 466.8 750 464.7 752.6 464.7 755.1 464.7 757.3 466.8 757.3 469.4Z" stroke="#70AD47" stroke-width="1.4819" stroke-linejoin="round" fill="#70AD47"/><path d="M808.1 472.4C808.1 475 806 477.1 803.4 477.1 800.8 477.1 798.7 475 798.7 472.4 798.7 469.8 800.8 467.7 803.4 467.7 806 467.7 808.1 469.8 808.1 472.4Z" stroke="#70AD47" stroke-width="1.4819" stroke-linejoin="round" fill="#70AD47"/><path d="M858.9 474.1C858.9 476.7 856.8 478.8 854.2 478.8 851.6 478.8 849.5 476.7 849.5 474.1 849.5 471.5 851.6 469.4 854.2 469.4 856.8 469.4 858.9 471.5 858.9 474.1Z" stroke="#70AD47" stroke-width="1.4819" stroke-linejoin="round" fill="#70AD47"/><path d="M909.8 471.1C909.8 473.7 907.7 475.8 905.1 475.8 902.5 475.8 900.4 473.7 900.4 471.1 900.4 468.5 902.5 466.4 905.1 466.4 907.7 466.4 909.8 468.5 909.8 471.1Z" stroke="#70AD47" stroke-width="1.4819" stroke-linejoin="round" fill="#70AD47"/><path d="M960.2 468.5C960.2 471.1 958.1 473.2 955.5 473.2 952.9 473.2 950.8 471.1 950.8 468.5 950.8 465.9 952.9 463.8 955.5 463.8 958.1 463.8 960.2 465.9 960.2 468.5Z" stroke="#70AD47" stroke-width="1.4819" stroke-linejoin="round" fill="#70AD47"/><path d="M1011 467.7C1011 470.3 1008.9 472.4 1006.3 472.4 1003.7 472.4 1001.6 470.3 1001.6 467.7 1001.6 465.1 1003.7 463 1006.3 463 1008.9 462.9 1011 465.1 1011 467.7Z" stroke="#70AD47" stroke-width="1.4819" stroke-linejoin="round" fill="#70AD47"/><path d="M1061.9 467.7C1061.9 470.3 1059.8 472.4 1057.2 472.4 1054.6 472.4 1052.5 470.3 1052.5 467.7 1052.5 465.1 1054.6 463 1057.2 463 1059.8 463 1061.9 465.1 1061.9 467.7Z" stroke="#70AD47" stroke-width="1.4819" stroke-linejoin="round" fill="#70AD47"/><path d="M1112.7 467.2C1112.7 469.8 1110.6 471.9 1108 471.9 1105.4 471.9 1103.3 469.8 1103.3 467.2 1103.3 464.6 1105.4 462.5 1108 462.5 1110.6 462.5 1112.7 464.6 1112.7 467.2Z" stroke="#70AD47" stroke-width="1.4819" stroke-linejoin="round" fill="#70AD47"/><path d="M1163.6 467.2C1163.6 469.8 1161.5 471.9 1158.9 471.9 1156.3 471.9 1154.2 469.8 1154.2 467.2 1154.2 464.6 1156.3 462.5 1158.9 462.5 1161.4 462.5 1163.6 464.6 1163.6 467.2Z" stroke="#70AD47" stroke-width="1.4819" stroke-linejoin="round" fill="#70AD47"/><path d="M194.1 219.8 245 178.4 295.8 188.7 346.2 186.1 397 246.8 447.8 281.3 498.6 324.4 549 339.5 599.8 376.5 650.6 398 701.4 422.5 752.2 443.2 802.6 461.3 853.4 475.5 904.2 484.1 955 492.7 1005.4 499.2 1056.2 503.9 1107 508.2 1157.7 511.2" stroke="#5B9BD5" stroke-width="4.4413" stroke-linecap="round" stroke-linejoin="round" fill="none"/><path d="M199.3 219.6C199.3 222.2 197.2 224.3 194.6 224.3 192 224.3 189.9 222.2 189.9 219.6 189.9 217 192 214.9 194.6 214.9 197.2 214.9 199.3 217 199.3 219.6Z" stroke="#5B9BD5" stroke-width="1.4819" stroke-linejoin="round" fill="#5B9BD5"/><path d="M249.7 178.7C249.7 181.3 247.6 183.4 245 183.4 242.4 183.4 240.3 181.3 240.3 178.7 240.3 176.1 242.4 174 245 174 247.6 173.9 249.7 176.1 249.7 178.7Z" stroke="#5B9BD5" stroke-width="1.4819" stroke-linejoin="round" fill="#5B9BD5"/><path d="M300.5 189C300.5 191.6 298.4 193.7 295.8 193.7 293.2 193.7 291.1 191.6 291.1 189 291.1 186.4 293.2 184.3 295.8 184.3 298.4 184.3 300.5 186.4 300.5 189Z" stroke="#5B9BD5" stroke-width="1.4819" stroke-linejoin="round" fill="#5B9BD5"/><path d="M351.4 186.4C351.4 189 349.3 191.1 346.7 191.1 344.1 191.1 342 189 342 186.4 342 183.8 344.1 181.7 346.7 181.7 349.3 181.7 351.4 183.8 351.4 186.4Z" stroke="#5B9BD5" stroke-width="1.4819" stroke-linejoin="round" fill="#5B9BD5"/><path d="M402.2 246.7C402.2 249.3 400.1 251.4 397.5 251.4 394.9 251.4 392.8 249.3 392.8 246.7 392.8 244.1 394.9 242 397.5 242 400.1 242 402.2 244.1 402.2 246.7Z" stroke="#5B9BD5" stroke-width="1.4819" stroke-linejoin="round" fill="#5B9BD5"/><path d="M453.1 281.6C453.1 284.2 451 286.3 448.4 286.3 445.8 286.3 443.7 284.2 443.7 281.6 443.7 279 445.8 276.9 448.4 276.9 450.9 276.9 453.1 279 453.1 281.6Z" stroke="#5B9BD5" stroke-width="1.4819" stroke-linejoin="round" fill="#5B9BD5"/><path d="M503.5 324.7C503.5 327.3 501.4 329.4 498.8 329.4 496.2 329.4 494.1 327.3 494.1 324.7 494.1 322.1 496.2 320 498.8 320 501.4 319.9 503.5 322.1 503.5 324.7Z" stroke="#5B9BD5" stroke-width="1.4819" stroke-linejoin="round" fill="#5B9BD5"/><path d="M554.3 339.3C554.3 341.9 552.2 344 549.6 344 547 344 544.9 341.9 544.9 339.3 544.9 336.7 547 334.6 549.6 334.6 552.2 334.6 554.3 336.7 554.3 339.3Z" stroke="#5B9BD5" stroke-width="1.4819" stroke-linejoin="round" fill="#5B9BD5"/><path d="M605.2 376.4C605.2 379 603.1 381.1 600.5 381.1 597.9 381.1 595.8 379 595.8 376.4 595.8 373.8 597.9 371.7 600.5 371.7 603 371.6 605.2 373.8 605.2 376.4Z" stroke="#5B9BD5" stroke-width="1.4819" stroke-linejoin="round" fill="#5B9BD5"/><path d="M656 397.9C656 400.5 653.9 402.6 651.3 402.6 648.7 402.6 646.6 400.5 646.6 397.9 646.6 395.3 648.7 393.2 651.3 393.2 653.9 393.2 656 395.3 656 397.9Z" stroke="#5B9BD5" stroke-width="1.4819" stroke-linejoin="round" fill="#5B9BD5"/><path d="M706.8 422.9C706.8 425.5 704.7 427.6 702.1 427.6 699.5 427.6 697.4 425.5 697.4 422.9 697.4 420.3 699.5 418.2 702.1 418.2 704.7 418.2 706.8 420.3 706.8 422.9Z" stroke="#5B9BD5" stroke-width="1.4819" stroke-linejoin="round" fill="#5B9BD5"/><path d="M757.3 443.6C757.3 446.2 755.2 448.3 752.6 448.3 750 448.3 747.9 446.2 747.9 443.6 747.9 441 750 438.9 752.6 438.9 755.1 438.8 757.3 440.9 757.3 443.6Z" stroke="#5B9BD5" stroke-width="1.4819" stroke-linejoin="round" fill="#5B9BD5"/><path d="M808.1 461.2C808.1 463.8 806 465.9 803.4 465.9 800.8 465.9 798.7 463.8 798.7 461.2 798.7 458.6 800.8 456.5 803.4 456.5 806 456.5 808.1 458.6 808.1 461.2Z" stroke="#5B9BD5" stroke-width="1.4819" stroke-linejoin="round" fill="#5B9BD5"/><path d="M858.9 475.4C858.9 478 856.8 480.1 854.2 480.1 851.6 480.1 849.5 478 849.5 475.4 849.5 472.8 851.6 470.7 854.2 470.7 856.8 470.7 858.9 472.8 858.9 475.4Z" stroke="#5B9BD5" stroke-width="1.4819" stroke-linejoin="round" fill="#5B9BD5"/><path d="M909.8 484.5C909.8 487.1 907.7 489.2 905.1 489.2 902.5 489.2 900.4 487.1 900.4 484.5 900.4 481.9 902.5 479.8 905.1 479.8 907.7 479.7 909.8 481.9 909.8 484.5Z" stroke="#5B9BD5" stroke-width="1.4819" stroke-linejoin="round" fill="#5B9BD5"/><path d="M960.2 493.1C960.2 495.7 958.1 497.8 955.5 497.8 952.9 497.8 950.8 495.7 950.8 493.1 950.8 490.5 952.9 488.4 955.5 488.4 958.1 488.4 960.2 490.5 960.2 493.1Z" stroke="#5B9BD5" stroke-width="1.4819" stroke-linejoin="round" fill="#5B9BD5"/><path d="M1011 499.6C1011 502.2 1008.9 504.3 1006.3 504.3 1003.7 504.3 1001.6 502.2 1001.6 499.6 1001.6 497 1003.7 494.9 1006.3 494.9 1008.9 494.8 1011 496.9 1011 499.6Z" stroke="#5B9BD5" stroke-width="1.4819" stroke-linejoin="round" fill="#5B9BD5"/><path d="M1061.9 504.3C1061.9 506.9 1059.8 509 1057.2 509 1054.6 509 1052.5 506.9 1052.5 504.3 1052.5 501.7 1054.6 499.6 1057.2 499.6 1059.8 499.6 1061.9 501.7 1061.9 504.3Z" stroke="#5B9BD5" stroke-width="1.4819" stroke-linejoin="round" fill="#5B9BD5"/><path d="M1112.7 508.6C1112.7 511.2 1110.6 513.3 1108 513.3 1105.4 513.3 1103.3 511.2 1103.3 508.6 1103.3 506 1105.4 503.9 1108 503.9 1110.6 503.9 1112.7 506 1112.7 508.6Z" stroke="#5B9BD5" stroke-width="1.4819" stroke-linejoin="round" fill="#5B9BD5"/><path d="M1163.6 511.2C1163.6 513.8 1161.5 515.9 1158.9 515.9 1156.3 515.9 1154.2 513.8 1154.2 511.2 1154.2 508.6 1156.3 506.5 1158.9 506.5 1161.4 506.4 1163.6 508.6 1163.6 511.2L1163.6 511.2Z" stroke="#5B9BD5" stroke-width="1.4819" stroke-linejoin="round" fill="#5B9BD5"/><text fill="#FFFFFF" font-family="Arial,Arial_MSFontService,sans-serif" font-weight="400" font-size="18" transform="matrix(1.0004 0 0 1 123.505 595)">0 </text><text fill="#FFFFFF" font-family="Arial,Arial_MSFontService,sans-serif" font-weight="400" font-size="18" transform="matrix(1.0004 0 0 1 138.154 595)">%</text><text fill="#FFFFFF" font-family="Arial,Arial_MSFontService,sans-serif" font-weight="400" font-size="18" transform="matrix(1.0004 0 0 1 113.521 544)">25 </text><text fill="#FFFFFF" font-family="Arial,Arial_MSFontService,sans-serif" font-weight="400" font-size="18" transform="matrix(1.0004 0 0 1 138.081 544)">%</text><text fill="#FFFFFF" font-family="Arial,Arial_MSFontService,sans-serif" font-weight="400" font-size="18" transform="matrix(1.0004 0 0 1 113.521 492)">50 </text><text fill="#FFFFFF" font-family="Arial,Arial_MSFontService,sans-serif" font-weight="400" font-size="18" transform="matrix(1.0004 0 0 1 138.081 492)">%</text><text fill="#FFFFFF" font-family="Arial,Arial_MSFontService,sans-serif" font-weight="400" font-size="18" transform="matrix(1.0004 0 0 1 113.521 441)">75 </text><text fill="#FFFFFF" font-family="Arial,Arial_MSFontService,sans-serif" font-weight="400" font-size="18" transform="matrix(1.0004 0 0 1 138.081 441)">%</text><text fill="#FFFFFF" font-family="Arial,Arial_MSFontService,sans-serif" font-weight="400" font-size="18" transform="matrix(1.0004 0 0 1 103.539 389)">100 </text><text fill="#FFFFFF" font-family="Arial,Arial_MSFontService,sans-serif" font-weight="400" font-size="18" transform="matrix(1.0004 0 0 1 138.008 389)">%</text><text fill="#FFFFFF" font-family="Arial,Arial_MSFontService,sans-serif" font-weight="400" font-size="18" transform="matrix(1.0004 0 0 1 103.539 338)">125 </text><text fill="#FFFFFF" font-family="Arial,Arial_MSFontService,sans-serif" font-weight="400" font-size="18" transform="matrix(1.0004 0 0 1 138.008 338)">%</text><text fill="#FFFFFF" font-family="Arial,Arial_MSFontService,sans-serif" font-weight="400" font-size="18" transform="matrix(1.0004 0 0 1 103.539 287)">150 </text><text fill="#FFFFFF" font-family="Arial,Arial_MSFontService,sans-serif" font-weight="400" font-size="18" transform="matrix(1.0004 0 0 1 138.008 287)">%</text><text fill="#FFFFFF" font-family="Arial,Arial_MSFontService,sans-serif" font-weight="400" font-size="18" transform="matrix(1.0004 0 0 1 103.539 235)">175 </text><text fill="#FFFFFF" font-family="Arial,Arial_MSFontService,sans-serif" font-weight="400" font-size="18" transform="matrix(1.0004 0 0 1 138.008 235)">%</text><text fill="#FFFFFF" font-family="Arial,Arial_MSFontService,sans-serif" font-weight="400" font-size="18" transform="matrix(1.0004 0 0 1 103.539 184)">200 </text><text fill="#FFFFFF" font-family="Arial,Arial_MSFontService,sans-serif" font-weight="400" font-size="18" transform="matrix(1.0004 0 0 1 138.008 184)">%</text><text fill="#FFFFFF" font-family="Arial,Arial_MSFontService,sans-serif" font-weight="400" font-size="18" transform="matrix(1.0004 0 0 1 103.539 133)">225 </text><text fill="#FFFFFF" font-family="Arial,Arial_MSFontService,sans-serif" font-weight="400" font-size="18" transform="matrix(1.0004 0 0 1 138.008 133)">%</text><text fill="#FFFFFF" font-family="Arial,Arial_MSFontService,sans-serif" font-weight="400" font-size="18" transform="matrix(1.0004 0 0 1 103.539 81)">250 </text><text fill="#FFFFFF" font-family="Arial,Arial_MSFontService,sans-serif" font-weight="400" font-size="18" transform="matrix(1.0004 0 0 1 138.008 81)">%</text><text fill="#FFFFFF" font-family="Arial,Arial_MSFontService,sans-serif" font-weight="400" font-size="18" transform="matrix(0.7072 -0.707 0.7072 0.707 184.902 630)">10</text><text fill="#FFFFFF" font-family="Arial,Arial_MSFontService,sans-serif" font-weight="400" font-size="18" transform="matrix(0.7072 -0.707 0.7072 0.707 235.649 630)">20</text><text fill="#FFFFFF" font-family="Arial,Arial_MSFontService,sans-serif" font-weight="400" font-size="18" transform="matrix(0.7072 -0.707 0.7072 0.707 286.4 630)">40</text><text fill="#FFFFFF" font-family="Arial,Arial_MSFontService,sans-serif" font-weight="400" font-size="18" transform="matrix(0.7072 -0.707 0.7072 0.707 337.151 630)">80</text><text fill="#FFFFFF" font-family="Arial,Arial_MSFontService,sans-serif" font-weight="400" font-size="18" transform="matrix(0.7072 -0.707 0.7072 0.707 380.841 637)">160</text><text fill="#FFFFFF" font-family="Arial,Arial_MSFontService,sans-serif" font-weight="400" font-size="18" transform="matrix(0.7072 -0.707 0.7072 0.707 431.587 637)">320</text><text fill="#FFFFFF" font-family="Arial,Arial_MSFontService,sans-serif" font-weight="400" font-size="18" transform="matrix(0.7072 -0.707 0.7072 0.707 482.338 637)">640</text><text fill="#FFFFFF" font-family="Arial,Arial_MSFontService,sans-serif" font-weight="400" font-size="18" transform="matrix(0.7072 -0.707 0.7072 0.707 526.028 644)">1280</text><text fill="#FFFFFF" font-family="Arial,Arial_MSFontService,sans-serif" font-weight="400" font-size="18" transform="matrix(0.7072 -0.707 0.7072 0.707 576.779 644)">2560</text><text fill="#FFFFFF" font-family="Arial,Arial_MSFontService,sans-serif" font-weight="400" font-size="18" transform="matrix(0.7072 -0.707 0.7072 0.707 627.526 644)">5120</text><text fill="#FFFFFF" font-family="Arial,Arial_MSFontService,sans-serif" font-weight="400" font-size="18" transform="matrix(0.7072 -0.707 0.7072 0.707 671.215 651)">10240</text><text fill="#FFFFFF" font-family="Arial,Arial_MSFontService,sans-serif" font-weight="400" font-size="18" transform="matrix(0.7072 -0.707 0.7072 0.707 721.966 651)">20480</text><text fill="#FFFFFF" font-family="Arial,Arial_MSFontService,sans-serif" font-weight="400" font-size="18" transform="matrix(0.7072 -0.707 0.7072 0.707 772.717 651)">40960</text><text fill="#FFFFFF" font-family="Arial,Arial_MSFontService,sans-serif" font-weight="400" font-size="18" transform="matrix(0.7072 -0.707 0.7072 0.707 823.464 651)">81920</text><text fill="#FFFFFF" font-family="Arial,Arial_MSFontService,sans-serif" font-weight="400" font-size="18" transform="matrix(0.7072 -0.707 0.7072 0.707 867.153 658)">163840</text><text fill="#FFFFFF" font-family="Arial,Arial_MSFontService,sans-serif" font-weight="400" font-size="18" transform="matrix(0.7072 -0.707 0.7072 0.707 917.904 658)">327680</text><text fill="#FFFFFF" font-family="Arial,Arial_MSFontService,sans-serif" font-weight="400" font-size="18" transform="matrix(0.7072 -0.707 0.7072 0.707 968.651 658)">655360</text><text fill="#FFFFFF" font-family="Arial,Arial_MSFontService,sans-serif" font-weight="400" font-size="18" transform="matrix(0.7072 -0.707 0.7072 0.707 1012.34 665)">1310720</text><text fill="#FFFFFF" font-family="Arial,Arial_MSFontService,sans-serif" font-weight="400" font-size="18" transform="matrix(0.7072 -0.707 0.7072 0.707 1063.09 665)">2621440</text><text fill="#FFFFFF" font-family="Arial,Arial_MSFontService,sans-serif" font-weight="400" font-size="18" transform="matrix(0.7072 -0.707 0.7072 0.707 1113.84 665)">5242880</text><text fill="#FFFFFF" font-family="Arial,Arial_MSFontService,sans-serif" font-weight="400" font-size="20" transform="matrix(0 -0.9996 1 0 74.3799 447)">Compression ratio</text><text fill="#FFFFFF" font-family="Arial,Arial_MSFontService,sans-serif" font-weight="400" font-size="20" transform="matrix(1.0004 0 0 1 579.968 688)">Size in bytes</text><path d="M535.1 42.2 573 42.2" stroke="#70AD47" stroke-width="4.4413" stroke-linecap="round" stroke-linejoin="round" fill="none"/><path d="M558.4 42C558.4 44.5 556.3 46.5 553.7 46.5 551.1 46.5 549 44.5 549 42 549 39.5 551.1 37.5 553.7 37.5 556.3 37.5 558.4 39.5 558.4 42Z" stroke="#70AD47" stroke-width="1.4819" stroke-linejoin="round" fill="#70AD47"/><text fill="#FFFFFF" font-family="Arial,Arial_MSFontService,sans-serif" font-weight="400" font-size="18" transform="matrix(1.0004 0 0 1 576.948 47)">Hu</text><text fill="#FFFFFF" font-family="Arial,Arial_MSFontService,sans-serif" font-weight="400" font-size="18" transform="matrix(1.0004 0 0 1 599.529 47)">f</text><text fill="#FFFFFF" font-family="Arial,Arial_MSFontService,sans-serif" font-weight="400" font-size="18" transform="matrix(1.0004 0 0 1 604.118 47)">fman</text><path d="M665.7 42.2 703.6 42.2" stroke="#5B9BD5" stroke-width="4.4413" stroke-linecap="round" stroke-linejoin="round" fill="none"/><path d="M689 42C689 44.5 686.9 46.5 684.3 46.5 681.7 46.5 679.6 44.5 679.6 42 679.6 39.5 681.7 37.5 684.3 37.5 686.8 37.5 689 39.5 689 42Z" stroke="#5B9BD5" stroke-width="1.4819" stroke-linejoin="round" fill="#5B9BD5"/><text fill="#FFFFFF" font-family="Arial,Arial_MSFontService,sans-serif" font-weight="400" font-size="18" transform="matrix(1.0004 0 0 1 707.576 47)">LZW</text><path d="M1246.1 3.9 1246.1 716.1 33.9 716.1 33.9 3.9 1246.1 3.9M1250 0 30 0 30 720 1250 720 1250 0Z" fill="#D9D9D9"/></g></svg>