<?xml version="1.0" encoding="UTF-8" standalone="no"?>
<svg
   width="1220"
   height="720"
   xml:space="preserve"
   overflow="hidden"
   version="1.1"
   id="svg219"
   xmlns="http://www.w3.org/2000/svg"
   xmlns:svg="http://www.w3.org/2000/svg"><defs
     id="defs21"><clipPath
       id="clip0"><rect
         x="0"
         y="0"
         width="1220"
         height="720"
         id="rect18" /></clipPath></defs><g
     clip-path="url(#clip0)"
     id="g217"><path
       d="M 138.92593,538.728 H 1153.6015 M 138.92593,487.041 H 1153.6015 M 138.92593,435.788 H 1153.6015 M 138.92593,384.105 H 1153.6015 M 138.92593,332.849 H 1153.6015 M 138.92593,281.596 H 1153.6015 M 138.92593,229.913 H 1153.6015 M 138.92593,178.657 H 1153.6015 M 138.92593,126.974 H 1153.6015 M 138.92593,75.7129 H 1153.6015"
       stroke="#d9d9d9"
       stroke-width="1.48187"
       stroke-linejoin="round"
       fill="none"
       id="path23" /><path
       d="M 138.92593,589.959 H 1153.6015"
       stroke="#d9d9d9"
       stroke-width="1.48187"
       stroke-linejoin="round"
       fill="none"
       id="path25" /><path
       d="m 164.13075,137.517 50.92385,31.019 50.84583,87.004 50.41065,46.514 50.84582,75.806 50.84082,43.931 50.84182,19.381 50.41466,-4.307 50.84182,14.643 50.84082,6.03 50.84582,7.322 50.84182,4.738 50.41465,3.014 50.84182,1.275 50.84082,-2.567 50.84583,-2.584 50.41065,-1.292 h 50.84385 l 50.8398,-0.431 50.7298,0.431"
       stroke="#70ad47"
       stroke-width="4.4413"
       stroke-linecap="round"
       stroke-linejoin="round"
       fill="none"
       id="path27" /><path
       d="m 169.29276,137.336 c 0,2.619 -2.12382,4.738 -4.73984,4.738 -2.61502,0 -4.73885,-2.119 -4.73885,-4.738 0,-2.618 2.11982,-4.737 4.73885,-4.737 2.62002,0 4.73984,2.123 4.73984,4.737 z"
       stroke="#70ad47"
       stroke-width="1.48187"
       stroke-linejoin="round"
       fill="#70ad47"
       id="path29" /><path
       d="m 219.70342,168.346 c 0,2.619 -2.12383,4.738 -4.73985,4.738 -2.61502,0 -4.73885,-2.119 -4.73885,-4.738 0,-2.619 2.11983,-4.738 4.73885,-4.738 2.62002,0 4.73985,2.119 4.73985,4.738 z"
       stroke="#70ad47"
       stroke-width="1.48187"
       stroke-linejoin="round"
       fill="#70ad47"
       id="path31" /><path
       d="m 270.54524,255.776 c 0,2.619 -2.12483,4.738 -4.73985,4.738 -2.61502,0 -4.73985,-2.119 -4.73985,-4.738 0,-2.618 2.11983,-4.737 4.73985,-4.737 2.62002,0 4.73985,2.123 4.73985,4.737 z"
       stroke="#70ad47"
       stroke-width="1.48187"
       stroke-linejoin="round"
       fill="#70ad47"
       id="path33" /><path
       d="m 321.38606,301.86 c 0,2.619 -2.12383,4.738 -4.73885,4.738 -2.61602,0 -4.73985,-2.119 -4.73985,-4.738 0,-2.618 2.11983,-4.737 4.73985,-4.737 2.61902,0 4.73885,2.119 4.73885,4.737 z"
       stroke="#70ad47"
       stroke-width="1.48187"
       stroke-linejoin="round"
       fill="#70ad47"
       id="path35" /><path
       d="m 372.22788,378.097 c 0,2.614 -2.12483,4.738 -4.73985,4.738 -2.61502,0 -4.73885,-2.124 -4.73885,-4.738 0,-2.614 2.11983,-4.738 4.73885,-4.738 2.62002,0 4.73985,2.119 4.73985,4.738 z"
       stroke="#70ad47"
       stroke-width="1.48187"
       stroke-linejoin="round"
       fill="#70ad47"
       id="path37" /><path
       d="m 423.0687,421.597 c 0,2.614 -2.12383,4.738 -4.73885,4.738 -2.61502,0 -4.73985,-2.124 -4.73985,-4.738 0,-2.614 2.11983,-4.738 4.73985,-4.738 2.61902,0 4.73885,2.119 4.73885,4.738 z"
       stroke="#70ad47"
       stroke-width="1.48187"
       stroke-linejoin="round"
       fill="#70ad47"
       id="path39" /><path
       d="m 473.47935,441.409 c 0,2.614 -2.12383,4.737 -4.73885,4.737 -2.61602,0 -4.73985,-2.123 -4.73985,-4.737 0,-2.615 2.11983,-4.738 4.73985,-4.738 2.61902,0 4.73885,2.119 4.73885,4.738 z"
       stroke="#70ad47"
       stroke-width="1.48187"
       stroke-linejoin="round"
       fill="#70ad47"
       id="path41" /><path
       d="m 524.32117,437.102 c 0,2.614 -2.12383,4.737 -4.73985,4.737 -2.61502,0 -4.73884,-2.123 -4.73884,-4.737 0,-2.614 2.11982,-4.738 4.73884,-4.738 2.62002,0 4.73985,2.119 4.73985,4.738 z"
       stroke="#70ad47"
       stroke-width="1.48187"
       stroke-linejoin="round"
       fill="#70ad47"
       id="path43" /><path
       d="m 575.16299,451.315 c 0,2.614 -2.12483,4.737 -4.73985,4.737 -2.61502,0 -4.73984,-2.123 -4.73984,-4.737 0,-2.615 2.11982,-4.738 4.73984,-4.738 2.62002,0 4.73985,2.119 4.73985,4.738 z"
       stroke="#70ad47"
       stroke-width="1.48187"
       stroke-linejoin="round"
       fill="#70ad47"
       id="path45" /><path
       d="m 626.00381,457.775 c 0,2.614 -2.12383,4.738 -4.73885,4.738 -2.61602,0 -4.73984,-2.124 -4.73984,-4.738 0,-2.614 2.11982,-4.738 4.73984,-4.738 2.61903,0 4.73885,2.119 4.73885,4.738 z"
       stroke="#70ad47"
       stroke-width="1.48187"
       stroke-linejoin="round"
       fill="#70ad47"
       id="path47" /><path
       d="m 676.84563,464.666 c 0,2.614 -2.12483,4.738 -4.73985,4.738 -2.61502,0 -4.73984,-2.124 -4.73984,-4.738 0,-2.614 2.12082,-4.738 4.73984,-4.738 2.62003,0 4.73985,2.12 4.73985,4.738 z"
       stroke="#70ad47"
       stroke-width="1.48187"
       stroke-linejoin="round"
       fill="#70ad47"
       id="path49" /><path
       d="m 727.25628,469.404 c 0,2.614 -2.12482,4.737 -4.73984,4.737 -2.61502,0 -4.73985,-2.123 -4.73985,-4.737 0,-2.615 2.11983,-4.738 4.73985,-4.738 2.62002,0 4.73984,2.119 4.73984,4.738 z"
       stroke="#70ad47"
       stroke-width="1.48187"
       stroke-linejoin="round"
       fill="#70ad47"
       id="path51" /><path
       d="m 778.0971,472.419 c 0,2.614 -2.12382,4.737 -4.73884,4.737 -2.61602,0 -4.73985,-2.123 -4.73985,-4.737 0,-2.615 2.11983,-4.738 4.73985,-4.738 2.61902,0 4.73884,2.119 4.73884,4.738 z"
       stroke="#70ad47"
       stroke-width="1.48187"
       stroke-linejoin="round"
       fill="#70ad47"
       id="path53" /><path
       d="m 828.93893,474.141 c 0,2.615 -2.12383,4.738 -4.73985,4.738 -2.61502,0 -4.73885,-2.123 -4.73885,-4.738 0,-2.614 2.11983,-4.737 4.73885,-4.737 2.62002,0 4.73985,2.119 4.73985,4.737 z"
       stroke="#70ad47"
       stroke-width="1.48187"
       stroke-linejoin="round"
       fill="#70ad47"
       id="path55" /><path
       d="m 879.77975,471.126 c 0,2.615 -2.12383,4.738 -4.73885,4.738 -2.61502,0 -4.73985,-2.123 -4.73985,-4.738 0,-2.614 2.11983,-4.737 4.73985,-4.737 2.61902,0 4.73885,2.119 4.73885,4.737 z"
       stroke="#70ad47"
       stroke-width="1.48187"
       stroke-linejoin="round"
       fill="#70ad47"
       id="path57" /><path
       d="m 930.1904,468.542 c 0,2.615 -2.12383,4.738 -4.73885,4.738 -2.61602,0 -4.73985,-2.123 -4.73985,-4.738 0,-2.614 2.11983,-4.737 4.73985,-4.737 2.61902,0 4.73885,2.119 4.73885,4.737 z"
       stroke="#70ad47"
       stroke-width="1.48187"
       stroke-linejoin="round"
       fill="#70ad47"
       id="path59" /><path
       d="m 981.03222,467.681 c 0,2.614 -2.12383,4.738 -4.73985,4.738 -2.61502,0 -4.73885,-2.124 -4.73885,-4.738 0,-2.614 2.11983,-4.738 4.73885,-4.738 2.62002,0 4.73985,2.119 4.73985,4.738 z"
       stroke="#70ad47"
       stroke-width="1.48187"
       stroke-linejoin="round"
       fill="#70ad47"
       id="path61" /><path
       d="m 1031.874,467.681 c 0,2.614 -2.1208,4.738 -4.7418,4.738 -2.611,0 -4.7419,-2.124 -4.7419,-4.738 0,-2.614 2.1209,-4.738 4.7419,-4.738 2.621,0 4.7418,2.119 4.7418,4.738 z"
       stroke="#70ad47"
       stroke-width="1.48187"
       stroke-linejoin="round"
       fill="#70ad47"
       id="path63" /><path
       d="m 1082.7139,467.25 c 0,2.615 -2.1209,4.738 -4.7419,4.738 -2.611,0 -4.7318,-2.123 -4.7318,-4.738 0,-2.614 2.1208,-4.737 4.7318,-4.737 2.621,0 4.7419,2.119 4.7419,4.737 z"
       stroke="#70ad47"
       stroke-width="1.48187"
       stroke-linejoin="round"
       fill="#70ad47"
       id="path65" /><path
       d="m 1133.5537,467.25 c 0,2.615 -2.1208,4.738 -4.7319,4.738 -2.621,0 -4.7418,-2.123 -4.7418,-4.738 0,-2.614 2.1208,-4.737 4.7418,-4.737 2.6111,0 4.7319,2.119 4.7319,4.737 z"
       stroke="#70ad47"
       stroke-width="1.48187"
       stroke-linejoin="round"
       fill="#70ad47"
       id="path67" /><path
       d="m 164.13075,219.788 50.92385,-41.355 50.84583,10.345 50.41065,-2.584 50.84582,60.727 50.84082,34.456 50.84182,43.069 50.41466,15.074 50.84182,37.044 50.84082,21.534 50.84582,24.55 50.84182,20.673 50.41465,18.089 50.84182,14.213 50.84082,8.614 50.84583,8.618 50.41065,6.46 50.84385,4.738 50.8398,4.307 50.7298,2.993"
       stroke="#5b9bd5"
       stroke-width="4.4413"
       stroke-linecap="round"
       stroke-linejoin="round"
       fill="none"
       id="path69" /><path
       d="m 169.29276,219.598 c 0,2.619 -2.12382,4.738 -4.73984,4.738 -2.61502,0 -4.73885,-2.119 -4.73885,-4.738 0,-2.618 2.11982,-4.737 4.73885,-4.737 2.62002,0 4.73984,2.119 4.73984,4.737 z"
       stroke="#5b9bd5"
       stroke-width="1.48187"
       stroke-linejoin="round"
       fill="#5b9bd5"
       id="path71" /><path
       d="m 219.70342,178.683 c 0,2.618 -2.12383,4.737 -4.73985,4.737 -2.61502,0 -4.73885,-2.119 -4.73885,-4.737 0,-2.619 2.11983,-4.738 4.73885,-4.738 2.62002,0 4.73985,2.119 4.73985,4.738 z"
       stroke="#5b9bd5"
       stroke-width="1.48187"
       stroke-linejoin="round"
       fill="#5b9bd5"
       id="path73" /><path
       d="m 270.54524,189.019 c 0,2.619 -2.12483,4.738 -4.73985,4.738 -2.61502,0 -4.73985,-2.119 -4.73985,-4.738 0,-2.618 2.11983,-4.737 4.73985,-4.737 2.62002,0 4.73985,2.119 4.73985,4.737 z"
       stroke="#5b9bd5"
       stroke-width="1.48187"
       stroke-linejoin="round"
       fill="#5b9bd5"
       id="path75" /><path
       d="m 321.38606,186.435 c 0,2.619 -2.12383,4.738 -4.73885,4.738 -2.61602,0 -4.73985,-2.119 -4.73985,-4.738 0,-2.619 2.11983,-4.738 4.73985,-4.738 2.61902,0 4.73885,2.119 4.73885,4.738 z"
       stroke="#5b9bd5"
       stroke-width="1.48187"
       stroke-linejoin="round"
       fill="#5b9bd5"
       id="path77" /><path
       d="m 372.22788,246.732 c 0,2.618 -2.12483,4.737 -4.73985,4.737 -2.61502,0 -4.73885,-2.119 -4.73885,-4.737 0,-2.619 2.11983,-4.738 4.73885,-4.738 2.62002,0 4.73985,2.124 4.73985,4.738 z"
       stroke="#5b9bd5"
       stroke-width="1.48187"
       stroke-linejoin="round"
       fill="#5b9bd5"
       id="path79" /><path
       d="m 423.0687,281.618 c 0,2.618 -2.12383,4.737 -4.73885,4.737 -2.61502,0 -4.73985,-2.119 -4.73985,-4.737 0,-2.619 2.11983,-4.738 4.73985,-4.738 2.61902,0 4.73885,2.119 4.73885,4.738 z"
       stroke="#5b9bd5"
       stroke-width="1.48187"
       stroke-linejoin="round"
       fill="#5b9bd5"
       id="path81" /><path
       d="m 473.47935,324.687 c 0,2.619 -2.12383,4.738 -4.73885,4.738 -2.61602,0 -4.73985,-2.119 -4.73985,-4.738 0,-2.619 2.11983,-4.738 4.73985,-4.738 2.61902,0 4.73885,2.119 4.73885,4.738 z"
       stroke="#5b9bd5"
       stroke-width="1.48187"
       stroke-linejoin="round"
       fill="#5b9bd5"
       id="path83" /><path
       d="m 524.32117,339.335 c 0,2.614 -2.12383,4.737 -4.73985,4.737 -2.61502,0 -4.73884,-2.123 -4.73884,-4.737 0,-2.614 2.11982,-4.738 4.73884,-4.738 2.62002,0 4.73985,2.119 4.73985,4.738 z"
       stroke="#5b9bd5"
       stroke-width="1.48187"
       stroke-linejoin="round"
       fill="#5b9bd5"
       id="path85" /><path
       d="m 575.16299,376.374 c 0,2.615 -2.12483,4.738 -4.73985,4.738 -2.61502,0 -4.73984,-2.123 -4.73984,-4.738 0,-2.614 2.11982,-4.737 4.73984,-4.737 2.62002,0 4.73985,2.119 4.73985,4.737 z"
       stroke="#5b9bd5"
       stroke-width="1.48187"
       stroke-linejoin="round"
       fill="#5b9bd5"
       id="path87" /><path
       d="m 626.00381,397.909 c 0,2.614 -2.12383,4.738 -4.73885,4.738 -2.61602,0 -4.73984,-2.124 -4.73984,-4.738 0,-2.614 2.11982,-4.738 4.73984,-4.738 2.61903,0 4.73885,2.119 4.73885,4.738 z"
       stroke="#5b9bd5"
       stroke-width="1.48187"
       stroke-linejoin="round"
       fill="#5b9bd5"
       id="path89" /><path
       d="m 676.84563,422.889 c 0,2.614 -2.12483,4.738 -4.73985,4.738 -2.61502,0 -4.73984,-2.124 -4.73984,-4.738 0,-2.614 2.12082,-4.738 4.73984,-4.738 2.62003,0 4.73985,2.119 4.73985,4.738 z"
       stroke="#5b9bd5"
       stroke-width="1.48187"
       stroke-linejoin="round"
       fill="#5b9bd5"
       id="path91" /><path
       d="m 727.25628,443.562 c 0,2.615 -2.12482,4.738 -4.73984,4.738 -2.61502,0 -4.73985,-2.123 -4.73985,-4.738 0,-2.614 2.11983,-4.737 4.73985,-4.737 2.62002,0 4.73984,2.119 4.73984,4.737 z"
       stroke="#5b9bd5"
       stroke-width="1.48187"
       stroke-linejoin="round"
       fill="#5b9bd5"
       id="path93" /><path
       d="m 778.0971,461.221 c 0,2.614 -2.12382,4.737 -4.73884,4.737 -2.61602,0 -4.73985,-2.123 -4.73985,-4.737 0,-2.615 2.11983,-4.738 4.73985,-4.738 2.61902,0 4.73884,2.119 4.73884,4.738 z"
       stroke="#5b9bd5"
       stroke-width="1.48187"
       stroke-linejoin="round"
       fill="#5b9bd5"
       id="path95" /><path
       d="m 828.93893,475.433 c 0,2.615 -2.12383,4.738 -4.73985,4.738 -2.61502,0 -4.73885,-2.123 -4.73885,-4.738 0,-2.614 2.11983,-4.737 4.73885,-4.737 2.62002,0 4.73985,2.119 4.73985,4.737 z"
       stroke="#5b9bd5"
       stroke-width="1.48187"
       stroke-linejoin="round"
       fill="#5b9bd5"
       id="path97" /><path
       d="m 879.77975,484.478 c 0,2.614 -2.12383,4.738 -4.73885,4.738 -2.61502,0 -4.73985,-2.124 -4.73985,-4.738 0,-2.614 2.11983,-4.738 4.73985,-4.738 2.61902,0 4.73885,2.119 4.73885,4.738 z"
       stroke="#5b9bd5"
       stroke-width="1.48187"
       stroke-linejoin="round"
       fill="#5b9bd5"
       id="path99" /><path
       d="m 930.1904,493.092 c 0,2.614 -2.12383,4.737 -4.73885,4.737 -2.61602,0 -4.73985,-2.123 -4.73985,-4.737 0,-2.615 2.11983,-4.738 4.73985,-4.738 2.61902,0 4.73885,2.119 4.73885,4.738 z"
       stroke="#5b9bd5"
       stroke-width="1.48187"
       stroke-linejoin="round"
       fill="#5b9bd5"
       id="path101" /><path
       d="m 981.03222,499.552 c 0,2.614 -2.12383,4.738 -4.73985,4.738 -2.61502,0 -4.73885,-2.124 -4.73885,-4.738 0,-2.614 2.11983,-4.737 4.73885,-4.737 2.62002,0 4.73985,2.119 4.73985,4.737 z"
       stroke="#5b9bd5"
       stroke-width="1.48187"
       stroke-linejoin="round"
       fill="#5b9bd5"
       id="path103" /><path
       d="m 1031.874,504.29 c 0,2.614 -2.1208,4.737 -4.7418,4.737 -2.611,0 -4.7419,-2.123 -4.7419,-4.737 0,-2.615 2.1209,-4.738 4.7419,-4.738 2.621,0 4.7418,2.119 4.7418,4.738 z"
       stroke="#5b9bd5"
       stroke-width="1.48187"
       stroke-linejoin="round"
       fill="#5b9bd5"
       id="path105" /><path
       d="m 1082.7139,508.597 c 0,2.614 -2.1209,4.737 -4.7419,4.737 -2.611,0 -4.7318,-2.123 -4.7318,-4.737 0,-2.615 2.1208,-4.738 4.7318,-4.738 2.621,0 4.7419,2.119 4.7419,4.738 z"
       stroke="#5b9bd5"
       stroke-width="1.48187"
       stroke-linejoin="round"
       fill="#5b9bd5"
       id="path107" /><path
       d="m 1133.5537,511.181 c 0,2.614 -2.1208,4.737 -4.7319,4.737 -2.621,0 -4.7418,-2.123 -4.7418,-4.737 0,-2.614 2.1208,-4.738 4.7418,-4.738 2.6111,0 4.7319,2.119 4.7319,4.738 z"
       stroke="#5b9bd5"
       stroke-width="1.48187"
       stroke-linejoin="round"
       fill="#5b9bd5"
       id="path109" /><text
       fill="#595959"
       font-family="Arial, Arial_MSFontService, sans-serif"
       font-weight="400"
       font-size="17.6618px"
       transform="scale(1.0001962,0.99980384)"
       id="text111"
       x="93.486572"
       y="595.1167"
       style="stroke-width:0.430776">0 </text><text
       fill="#595959"
       font-family="Arial, Arial_MSFontService, sans-serif"
       font-weight="400"
       font-size="17.6618px"
       transform="scale(1.0001962,0.99980384)"
       id="text113"
       x="108.13279"
       y="595.1167"
       style="stroke-width:0.430776">%</text><text
       fill="#595959"
       font-family="Arial, Arial_MSFontService, sans-serif"
       font-weight="400"
       font-size="17.6618px"
       transform="scale(1.0001962,0.99980384)"
       id="text115"
       x="83.505424"
       y="544.10669"
       style="stroke-width:0.430776">25 </text><text
       fill="#595959"
       font-family="Arial, Arial_MSFontService, sans-serif"
       font-weight="400"
       font-size="17.6618px"
       transform="scale(1.0001962,0.99980384)"
       id="text117"
       x="108.05981"
       y="544.10669"
       style="stroke-width:0.430776">%</text><text
       fill="#595959"
       font-family="Arial, Arial_MSFontService, sans-serif"
       font-weight="400"
       font-size="17.6618px"
       transform="scale(1.0001962,0.99980384)"
       id="text119"
       x="83.505424"
       y="492.09653"
       style="stroke-width:0.430776">50 </text><text
       fill="#595959"
       font-family="Arial, Arial_MSFontService, sans-serif"
       font-weight="400"
       font-size="17.6618px"
       transform="scale(1.0001962,0.99980384)"
       id="text121"
       x="108.05981"
       y="492.09653"
       style="stroke-width:0.430776">%</text><text
       fill="#595959"
       font-family="Arial, Arial_MSFontService, sans-serif"
       font-weight="400"
       font-size="17.6618px"
       transform="scale(1.0001962,0.99980384)"
       id="text123"
       x="83.505424"
       y="441.08652"
       style="stroke-width:0.430776">75 </text><text
       fill="#595959"
       font-family="Arial, Arial_MSFontService, sans-serif"
       font-weight="400"
       font-size="17.6618px"
       transform="scale(1.0001962,0.99980384)"
       id="text125"
       x="108.05981"
       y="441.08652"
       style="stroke-width:0.430776">%</text><text
       fill="#595959"
       font-family="Arial, Arial_MSFontService, sans-serif"
       font-weight="400"
       font-size="17.6618px"
       transform="scale(1.0001962,0.99980384)"
       id="text127"
       x="73.524384"
       y="389.07632"
       style="stroke-width:0.430776">100 </text><text
       fill="#595959"
       font-family="Arial, Arial_MSFontService, sans-serif"
       font-weight="400"
       font-size="17.6618px"
       transform="scale(1.0001962,0.99980384)"
       id="text129"
       x="107.98682"
       y="389.07632"
       style="stroke-width:0.430776">%</text><text
       fill="#595959"
       font-family="Arial, Arial_MSFontService, sans-serif"
       font-weight="400"
       font-size="17.6618px"
       transform="scale(1.0001962,0.99980384)"
       id="text131"
       x="73.524384"
       y="338.06631"
       style="stroke-width:0.430776">125 </text><text
       fill="#595959"
       font-family="Arial, Arial_MSFontService, sans-serif"
       font-weight="400"
       font-size="17.6618px"
       transform="scale(1.0001962,0.99980384)"
       id="text133"
       x="107.98682"
       y="338.06631"
       style="stroke-width:0.430776">%</text><text
       fill="#595959"
       font-family="Arial, Arial_MSFontService, sans-serif"
       font-weight="400"
       font-size="17.6618px"
       transform="scale(1.0001962,0.99980384)"
       id="text135"
       x="73.524384"
       y="287.0563"
       style="stroke-width:0.430776">150 </text><text
       fill="#595959"
       font-family="Arial, Arial_MSFontService, sans-serif"
       font-weight="400"
       font-size="17.6618px"
       transform="scale(1.0001962,0.99980384)"
       id="text137"
       x="107.98682"
       y="287.0563"
       style="stroke-width:0.430776">%</text><text
       fill="#595959"
       font-family="Arial, Arial_MSFontService, sans-serif"
       font-weight="400"
       font-size="17.6618px"
       transform="scale(1.0001962,0.99980384)"
       id="text139"
       x="73.524384"
       y="235.04611"
       style="stroke-width:0.430776">175 </text><text
       fill="#595959"
       font-family="Arial, Arial_MSFontService, sans-serif"
       font-weight="400"
       font-size="17.6618px"
       transform="scale(1.0001962,0.99980384)"
       id="text141"
       x="107.98682"
       y="235.04611"
       style="stroke-width:0.430776">%</text><text
       fill="#595959"
       font-family="Arial, Arial_MSFontService, sans-serif"
       font-weight="400"
       font-size="17.6618px"
       transform="scale(1.0001962,0.99980384)"
       id="text143"
       x="73.524384"
       y="184.0361"
       style="stroke-width:0.430776">200 </text><text
       fill="#595959"
       font-family="Arial, Arial_MSFontService, sans-serif"
       font-weight="400"
       font-size="17.6618px"
       transform="scale(1.0001962,0.99980384)"
       id="text145"
       x="107.98682"
       y="184.0361"
       style="stroke-width:0.430776">%</text><text
       fill="#595959"
       font-family="Arial, Arial_MSFontService, sans-serif"
       font-weight="400"
       font-size="17.6618px"
       transform="scale(1.0001962,0.99980384)"
       id="text147"
       x="73.524384"
       y="133.02609"
       style="stroke-width:0.430776">225 </text><text
       fill="#595959"
       font-family="Arial, Arial_MSFontService, sans-serif"
       font-weight="400"
       font-size="17.6618px"
       transform="scale(1.0001962,0.99980384)"
       id="text149"
       x="107.98682"
       y="133.02609"
       style="stroke-width:0.430776">%</text><text
       fill="#595959"
       font-family="Arial, Arial_MSFontService, sans-serif"
       font-weight="400"
       font-size="17.6618px"
       transform="scale(1.0001962,0.99980384)"
       id="text151"
       x="73.524384"
       y="81.015884"
       style="stroke-width:0.430776">250 </text><text
       fill="#595959"
       font-family="Arial, Arial_MSFontService, sans-serif"
       font-weight="400"
       font-size="17.6618px"
       transform="scale(1.0001962,0.99980384)"
       id="text153"
       x="107.98682"
       y="81.015884"
       style="stroke-width:0.430776">%</text><text
       fill="#595959"
       font-family="Arial, Arial_MSFontService, sans-serif"
       font-weight="400"
       font-size="17.6618px"
       transform="matrix(0.70724492,-0.70696867,0.70724492,0.70696867,0,0)"
       id="text155"
       x="-336.05344"
       y="555.0752"
       style="stroke-width:0.430776">10</text><text
       fill="#595959"
       font-family="Arial, Arial_MSFontService, sans-serif"
       font-weight="400"
       font-size="17.6618px"
       transform="matrix(0.70724492,-0.70696867,0.70724492,0.70696867,0,0)"
       id="text157"
       x="-300.17688"
       y="590.95172"
       style="stroke-width:0.430776">20</text><text
       fill="#595959"
       font-family="Arial, Arial_MSFontService, sans-serif"
       font-weight="400"
       font-size="17.6618px"
       transform="matrix(0.70724492,-0.70696867,0.70724492,0.70696867,0,0)"
       id="text159"
       x="-264.29752"
       y="626.83105"
       style="stroke-width:0.430776">40</text><text
       fill="#595959"
       font-family="Arial, Arial_MSFontService, sans-serif"
       font-weight="400"
       font-size="17.6618px"
       transform="matrix(0.70724492,-0.70696867,0.70724492,0.70696867,0,0)"
       id="text161"
       x="-228.41815"
       y="662.71045"
       style="stroke-width:0.430776">80</text><text
       fill="#595959"
       font-family="Arial, Arial_MSFontService, sans-serif"
       font-weight="400"
       font-size="17.6618px"
       transform="matrix(0.70724492,-0.70696867,0.70724492,0.70696867,0,0)"
       id="text163"
       x="-202.48141"
       y="698.54865"
       style="stroke-width:0.430776">160</text><text
       fill="#595959"
       font-family="Arial, Arial_MSFontService, sans-serif"
       font-weight="400"
       font-size="17.6618px"
       transform="matrix(0.70724492,-0.70696867,0.70724492,0.70696867,0,0)"
       id="text165"
       x="-166.60558"
       y="734.42444"
       style="stroke-width:0.430776">320</text><text
       fill="#595959"
       font-family="Arial, Arial_MSFontService, sans-serif"
       font-weight="400"
       font-size="17.6618px"
       transform="matrix(0.70724492,-0.70696867,0.70724492,0.70696867,0,0)"
       id="text167"
       x="-130.72621"
       y="770.30383"
       style="stroke-width:0.430776">640</text><text
       fill="#595959"
       font-family="Arial, Arial_MSFontService, sans-serif"
       font-weight="400"
       font-size="17.6618px"
       transform="matrix(0.70724492,-0.70696867,0.70724492,0.70696867,0,0)"
       id="text169"
       x="-104.78946"
       y="806.14197"
       style="stroke-width:0.430776">1280</text><text
       fill="#595959"
       font-family="Arial, Arial_MSFontService, sans-serif"
       font-weight="400"
       font-size="17.6618px"
       transform="matrix(0.70724492,-0.70696867,0.70724492,0.70696867,0,0)"
       id="text171"
       x="-68.910095"
       y="842.02136"
       style="stroke-width:0.430776">2560</text><text
       fill="#595959"
       font-family="Arial, Arial_MSFontService, sans-serif"
       font-weight="400"
       font-size="17.6618px"
       transform="matrix(0.70724492,-0.70696867,0.70724492,0.70696867,0,0)"
       id="text173"
       x="-33.033566"
       y="877.89789"
       style="stroke-width:0.430776">5120</text><text
       fill="#595959"
       font-family="Arial, Arial_MSFontService, sans-serif"
       font-weight="400"
       font-size="17.6618px"
       transform="matrix(0.70724492,-0.70696867,0.70724492,0.70696867,0,0)"
       id="text175"
       x="-7.0975237"
       y="913.73535"
       style="stroke-width:0.430776">10240</text><text
       fill="#595959"
       font-family="Arial, Arial_MSFontService, sans-serif"
       font-weight="400"
       font-size="17.6618px"
       transform="matrix(0.70724492,-0.70696867,0.70724492,0.70696867,0,0)"
       id="text177"
       x="28.781841"
       y="949.61475"
       style="stroke-width:0.430776">20480</text><text
       fill="#595959"
       font-family="Arial, Arial_MSFontService, sans-serif"
       font-weight="400"
       font-size="17.6618px"
       transform="matrix(0.70724492,-0.70696867,0.70724492,0.70696867,0,0)"
       id="text179"
       x="64.661209"
       y="985.49408"
       style="stroke-width:0.430776">40960</text><text
       fill="#595959"
       font-family="Arial, Arial_MSFontService, sans-serif"
       font-weight="400"
       font-size="17.6618px"
       transform="matrix(0.70724492,-0.70696867,0.70724492,0.70696867,0,0)"
       id="text181"
       x="100.53776"
       y="1021.3707"
       style="stroke-width:0.430776">81920</text><text
       fill="#595959"
       font-family="Arial, Arial_MSFontService, sans-serif"
       font-weight="400"
       font-size="17.6618px"
       transform="matrix(0.70724492,-0.70696867,0.70724492,0.70696867,0,0)"
       id="text183"
       x="126.4738"
       y="1057.2081"
       style="stroke-width:0.430776">163840</text><text
       fill="#595959"
       font-family="Arial, Arial_MSFontService, sans-serif"
       font-weight="400"
       font-size="17.6618px"
       transform="matrix(0.70724492,-0.70696867,0.70724492,0.70696867,0,0)"
       id="text185"
       x="162.35316"
       y="1093.0875"
       style="stroke-width:0.430776">327680</text><text
       fill="#595959"
       font-family="Arial, Arial_MSFontService, sans-serif"
       font-weight="400"
       font-size="17.6618px"
       transform="matrix(0.70724492,-0.70696867,0.70724492,0.70696867,0,0)"
       id="text187"
       x="198.22971"
       y="1128.9641"
       style="stroke-width:0.430776">655360</text><text
       fill="#595959"
       font-family="Arial, Arial_MSFontService, sans-serif"
       font-weight="400"
       font-size="17.6618px"
       transform="matrix(0.70724492,-0.70696867,0.70724492,0.70696867,0,0)"
       id="text189"
       x="224.16858"
       y="1164.8043"
       style="stroke-width:0.430776">1310720</text><text
       fill="#595959"
       font-family="Arial, Arial_MSFontService, sans-serif"
       font-weight="400"
       font-size="17.6618px"
       transform="matrix(0.70724492,-0.70696867,0.70724492,0.70696867,0,0)"
       id="text191"
       x="260.0444"
       y="1200.6802"
       style="stroke-width:0.430776">2621440</text><text
       fill="#595959"
       font-family="Arial, Arial_MSFontService, sans-serif"
       font-weight="400"
       font-size="17.6618px"
       transform="matrix(0.70724492,-0.70696867,0.70724492,0.70696867,0,0)"
       id="text193"
       x="295.92307"
       y="1236.5588"
       style="stroke-width:0.430776">5242880</text><text
       fill="#595959"
       font-family="Arial, Arial_MSFontService, sans-serif"
       font-weight="700"
       font-size="19.8157px"
       transform="matrix(0,-0.99980384,1.0001962,0,0,0)"
       id="text195"
       x="-447.08768"
       y="44.371296"
       style="stroke-width:0.430776">Compression ratio</text><text
       fill="#595959"
       font-family="Arial, Arial_MSFontService, sans-serif"
       font-weight="700"
       font-size="19.8157px"
       transform="scale(1.0001962,0.99980384)"
       id="text197"
       x="549.86011"
       y="688.13495"
       style="stroke-width:0.430776">Size in bytes</text><path
       d="m 505.13581,42.211 h 37.91578"
       stroke="#70ad47"
       stroke-width="4.4413"
       stroke-linecap="round"
       stroke-linejoin="round"
       fill="none"
       id="path199" /><path
       d="m 528.40288,41.9956 c 0,2.5023 -2.11983,4.5309 -4.73985,4.5309 -2.62002,0 -4.73984,-2.0286 -4.73984,-4.5309 0,-2.5023 2.11982,-4.5309 4.73984,-4.5309 2.62002,0 4.73985,2.0286 4.73985,4.5309 z"
       stroke="#70ad47"
       stroke-width="1.48187"
       stroke-linejoin="round"
       fill="#70ad47"
       id="path201" /><text
       fill="#595959"
       font-family="Arial, Arial_MSFontService, sans-serif"
       font-weight="400"
       font-size="17.6618px"
       transform="scale(1.0001962,0.99980385)"
       id="text203"
       x="546.8407"
       y="47.00922"
       style="stroke-width:0.430776">Hu</text><text
       fill="#595959"
       font-family="Arial, Arial_MSFontService, sans-serif"
       font-weight="400"
       font-size="17.6618px"
       transform="scale(1.0001962,0.99980385)"
       id="text205"
       x="569.4173"
       y="47.00922"
       style="stroke-width:0.430776">f</text><text
       fill="#595959"
       font-family="Arial, Arial_MSFontService, sans-serif"
       font-weight="400"
       font-size="17.6618px"
       transform="scale(1.0001962,0.99980385)"
       id="text207"
       x="574.00537"
       y="47.00922"
       style="stroke-width:0.430776">fman</text><path
       d="m 635.68671,42.211 h 37.91578"
       stroke="#5b9bd5"
       stroke-width="4.4413"
       stroke-linecap="round"
       stroke-linejoin="round"
       fill="none"
       id="path209" /><path
       d="m 658.95278,41.9956 c 0,2.5023 -2.11983,4.5309 -4.73985,4.5309 -2.61902,0 -4.73885,-2.0286 -4.73885,-4.5309 0,-2.5023 2.11983,-4.5309 4.73885,-4.5309 2.62002,0 4.73985,2.0286 4.73985,4.5309 z"
       stroke="#5b9bd5"
       stroke-width="1.48187"
       stroke-linejoin="round"
       fill="#5b9bd5"
       id="path211" /><text
       fill="#595959"
       font-family="Arial, Arial_MSFontService, sans-serif"
       font-weight="400"
       font-size="17.6618px"
       transform="scale(1.0001962,0.99980385)"
       id="text213"
       x="677.44312"
       y="47.00922"
       style="stroke-width:0.430776">LZW</text><path
       d="M 1215.64,3.87622 V 716.124 H 3.87622 V 3.87622 H 1215.64 M 1219.51,0 H 0 v 720 h 1219.51 z"
       fill="#d9d9d9"
       id="path215"
       transform="matrix(1.00039,0,0,1,0.00488583,0)" /></g></svg>
